<?xml version="1.0" encoding="UTF-8" standalone="no"?>
<!DOCTYPE svg PUBLIC "-//W3C//DTD SVG 1.1//EN"
 "http://www.w3.org/Graphics/SVG/1.1/DTD/svg11.dtd">
<!-- Generated by graphviz version 2.42.3 (0)
 -->
<!-- Title: dependency&#45;cruiser output Pages: 1 -->
<svg width="262pt" height="274pt"
 viewBox="0.00 0.00 262.00 274.00" xmlns="http://www.w3.org/2000/svg" xmlns:xlink="http://www.w3.org/1999/xlink">
<g id="graph0" class="graph" transform="scale(1 1) rotate(0) translate(4 270)">
<title>dependency&#45;cruiser output</title>
<polygon fill="white" stroke="transparent" points="-4,4 -4,-270 258,-270 258,4 -4,4"/>
<g id="clust1" class="cluster">
<title>cluster_src</title>
<path fill="#ffffff" stroke="black" stroke-width="2" d="M20,-116C20,-116 234,-116 234,-116 240,-116 246,-122 246,-128 246,-128 246,-246 246,-246 246,-252 240,-258 234,-258 234,-258 20,-258 20,-258 14,-258 8,-252 8,-246 8,-246 8,-128 8,-128 8,-122 14,-116 20,-116"/>
<text text-anchor="middle" x="127" y="-246.8" font-family="Helvetica,sans-Serif" font-weight="bold" font-size="9.00">src</text>
</g>
<g id="clust2" class="cluster">
<title>cluster_src/error</title>
<path fill="#ffffff" stroke="black" stroke-width="2" d="M90,-124C90,-124 226,-124 226,-124 232,-124 238,-130 238,-136 238,-136 238,-194 238,-194 238,-200 232,-206 226,-206 226,-206 90,-206 90,-206 84,-206 78,-200 78,-194 78,-194 78,-136 78,-136 78,-130 84,-124 90,-124"/>
<text text-anchor="middle" x="158" y="-194.8" font-family="Helvetica,sans-Serif" font-weight="bold" font-size="9.00">error</text>
</g>
<!-- http -->
<g id="node1" class="node">
<title>http</title>
<path fill="#ffffcc" stroke="grey" d="M179,-108C179,-108 137,-108 137,-108 134,-108 131,-105 131,-102 131,-102 131,-96 131,-96 131,-93 134,-90 137,-90 137,-90 179,-90 179,-90 182,-90 185,-93 185,-96 185,-96 185,-102 185,-102 185,-105 182,-108 179,-108"/>
<text text-anchor="middle" x="158" y="-96.8" font-family="Helvetica,sans-Serif" font-size="9.00" fill="grey">http</text>
</g>
<!-- https -->
<g id="node2" class="node">
<title>https</title>
<path fill="#ffffcc" stroke="grey" d="M179,-78C179,-78 137,-78 137,-78 134,-78 131,-75 131,-72 131,-72 131,-66 131,-66 131,-63 134,-60 137,-60 137,-60 179,-60 179,-60 182,-60 185,-63 185,-66 185,-66 185,-72 185,-72 185,-75 182,-78 179,-78"/>
<text text-anchor="middle" x="158" y="-66.8" font-family="Helvetica,sans-Serif" font-size="9.00" fill="grey">https</text>
</g>
<!-- src/error/BadRequestError.ts -->
<g id="node3" class="node">
<title>src/error/BadRequestError.ts</title>
<g id="a_node3"><a xlink:href="https://github.com/dragonman225/notionapi-agent/tree/master/src/error/BadRequestError.ts" xlink:title="BadRequestError.ts">
<path fill="#ddfeff" stroke="black" d="M203.5,-180C203.5,-180 112.5,-180 112.5,-180 109.5,-180 106.5,-177 106.5,-174 106.5,-174 106.5,-168 106.5,-168 106.5,-165 109.5,-162 112.5,-162 112.5,-162 203.5,-162 203.5,-162 206.5,-162 209.5,-165 209.5,-168 209.5,-168 209.5,-174 209.5,-174 209.5,-177 206.5,-180 203.5,-180"/>
<text text-anchor="middle" x="158" y="-168.8" font-family="Helvetica,sans-Serif" font-size="9.00">BadRequestError.ts</text>
</a>
</g>
</g>
<!-- src/error/UnsupportedProtocolError.ts -->
<g id="node4" class="node">
<title>src/error/UnsupportedProtocolError.ts</title>
<g id="a_node4"><a xlink:href="https://github.com/dragonman225/notionapi-agent/tree/master/src/error/UnsupportedProtocolError.ts" xlink:title="UnsupportedProtocolError.ts">
<path fill="#ddfeff" stroke="black" d="M224,-150C224,-150 92,-150 92,-150 89,-150 86,-147 86,-144 86,-144 86,-138 86,-138 86,-135 89,-132 92,-132 92,-132 224,-132 224,-132 227,-132 230,-135 230,-138 230,-138 230,-144 230,-144 230,-147 227,-150 224,-150"/>
<text text-anchor="middle" x="158" y="-138.8" font-family="Helvetica,sans-Serif" font-size="9.00">UnsupportedProtocolError.ts</text>
</a>
</g>
</g>
<!-- src/index.ts -->
<g id="node5" class="node">
<title>src/index.ts</title>
<g id="a_node5"><a xlink:href="https://github.com/dragonman225/notionapi-agent/tree/master/src/index.ts" xlink:title="index.ts">
<path fill="#ddfeff" stroke="black" d="M64,-142C64,-142 22,-142 22,-142 19,-142 16,-139 16,-136 16,-136 16,-130 16,-130 16,-127 19,-124 22,-124 22,-124 64,-124 64,-124 67,-124 70,-127 70,-130 70,-130 70,-136 70,-136 70,-139 67,-142 64,-142"/>
<text text-anchor="middle" x="43" y="-130.8" font-family="Helvetica,sans-Serif" font-size="9.00">index.ts</text>
</a>
</g>
</g>
<!-- src/index.ts&#45;&gt;http -->
<g id="edge4" class="edge">
<title>src/index.ts&#45;&gt;http</title>
<path fill="none" stroke="#000000" stroke-dasharray="5,2" stroke-opacity="0.200000" d="M69.19,-123.9C72.15,-122.89 75.13,-121.9 78,-121 93.33,-116.17 110.5,-111.32 124.9,-107.41"/>
<polygon fill="#000000" fill-opacity="0.200000" stroke="#000000" stroke-opacity="0.200000" points="125.65,-109.38 130.9,-105.79 124.56,-105.33 125.65,-109.38"/>
</g>
<!-- src/index.ts&#45;&gt;https -->
<g id="edge5" class="edge">
<title>src/index.ts&#45;&gt;https</title>
<path fill="none" stroke="#000000" stroke-dasharray="5,2" stroke-opacity="0.200000" d="M47.76,-123.77C52.85,-112.48 63.06,-93.7 78,-84 91.73,-75.09 109.45,-71.19 124.63,-69.59"/>
<polygon fill="#000000" fill-opacity="0.200000" stroke="#000000" stroke-opacity="0.200000" points="125.17,-71.65 130.96,-69.03 124.8,-67.46 125.17,-71.65"/>
</g>
<!-- src/index.ts&#45;&gt;src/error/BadRequestError.ts -->
<g id="edge1" class="edge">
<title>src/index.ts&#45;&gt;src/error/BadRequestError.ts</title>
<path fill="none" stroke="#000000" stroke-width="2" stroke-opacity="0.200000" d="M54.98,-142.12C61.33,-146.95 69.7,-152.58 78,-156 85.1,-158.93 92.79,-161.29 100.49,-163.19"/>
<polygon fill="#000000" fill-opacity="0.200000" stroke="#000000" stroke-width="2" stroke-opacity="0.200000" points="100.06,-165.25 106.38,-164.56 101.01,-161.16 100.06,-165.25"/>
</g>
<!-- src/index.ts&#45;&gt;src/error/UnsupportedProtocolError.ts -->
<g id="edge2" class="edge">
<title>src/index.ts&#45;&gt;src/error/UnsupportedProtocolError.ts</title>
<path fill="none" stroke="#000000" stroke-width="2" stroke-opacity="0.200000" d="M70.21,-134.86C73.22,-135.07 76.4,-135.29 79.69,-135.53"/>
<polygon fill="#000000" fill-opacity="0.200000" stroke="#000000" stroke-width="2" stroke-opacity="0.200000" points="79.58,-137.62 85.72,-135.95 79.88,-133.43 79.58,-137.62"/>
</g>
<!-- src/util.ts -->
<g id="node6" class="node">
<title>src/util.ts</title>
<g id="a_node6"><a xlink:href="https://github.com/dragonman225/notionapi-agent/tree/master/src/util.ts" xlink:title="util.ts">
<path fill="#ddfeff" stroke="black" d="M179,-232C179,-232 137,-232 137,-232 134,-232 131,-229 131,-226 131,-226 131,-220 131,-220 131,-217 134,-214 137,-214 137,-214 179,-214 179,-214 182,-214 185,-217 185,-220 185,-220 185,-226 185,-226 185,-229 182,-232 179,-232"/>
<text text-anchor="middle" x="158" y="-220.8" font-family="Helvetica,sans-Serif" font-size="9.00">util.ts</text>
</a>
</g>
</g>
<!-- src/index.ts&#45;&gt;src/util.ts -->
<g id="edge3" class="edge">
<title>src/index.ts&#45;&gt;src/util.ts</title>
<path fill="none" stroke="#000000" stroke-width="2" stroke-opacity="0.200000" d="M45.3,-142.18C48.11,-158.42 56.35,-192.1 78,-209 91.09,-219.21 109.11,-222.95 124.64,-224.03"/>
<polygon fill="#000000" fill-opacity="0.200000" stroke="#000000" stroke-width="2" stroke-opacity="0.200000" points="124.58,-226.13 130.67,-224.33 124.78,-221.93 124.58,-226.13"/>
</g>
<!-- url -->
<g id="node7" class="node">
<title>url</title>
<path fill="#ffffcc" stroke="grey" d="M179,-48C179,-48 137,-48 137,-48 134,-48 131,-45 131,-42 131,-42 131,-36 131,-36 131,-33 134,-30 137,-30 137,-30 179,-30 179,-30 182,-30 185,-33 185,-36 185,-36 185,-42 185,-42 185,-45 182,-48 179,-48"/>
<text text-anchor="middle" x="158" y="-36.8" font-family="Helvetica,sans-Serif" font-size="9.00" fill="grey">url</text>
</g>
<!-- src/index.ts&#45;&gt;url -->
<g id="edge6" class="edge">
<title>src/index.ts&#45;&gt;url</title>
<path fill="none" stroke="#000000" stroke-dasharray="5,2" stroke-opacity="0.200000" d="M45.16,-123.76C47.78,-107.04 55.75,-71.84 78,-54 91.07,-43.51 109.26,-39.56 124.89,-38.33"/>
<polygon fill="#000000" fill-opacity="0.200000" stroke="#000000" stroke-opacity="0.200000" points="125.1,-40.42 130.96,-37.97 124.85,-36.22 125.1,-40.42"/>
</g>
<!-- zlib -->
<g id="node8" class="node">
<title>zlib</title>
<path fill="#ffffcc" stroke="grey" d="M179,-18C179,-18 137,-18 137,-18 134,-18 131,-15 131,-12 131,-12 131,-6 131,-6 131,-3 134,0 137,0 137,0 179,0 179,0 182,0 185,-3 185,-6 185,-6 185,-12 185,-12 185,-15 182,-18 179,-18"/>
<text text-anchor="middle" x="158" y="-6.8" font-family="Helvetica,sans-Serif" font-size="9.00" fill="grey">zlib</text>
</g>
<!-- src/index.ts&#45;&gt;zlib -->
<g id="edge7" class="edge">
<title>src/index.ts&#45;&gt;zlib</title>
<path fill="none" stroke="#000000" stroke-dasharray="5,2" stroke-opacity="0.200000" d="M43.92,-123.74C44.26,-102.59 48.26,-50.51 78,-24 90.6,-12.77 108.93,-8.8 124.76,-7.74"/>
<polygon fill="#000000" fill-opacity="0.200000" stroke="#000000" stroke-opacity="0.200000" points="125.02,-9.83 130.91,-7.46 124.83,-5.63 125.02,-9.83"/>
</g>
</g>
</svg>
