<?xml version="1.0" encoding="UTF-8" standalone="no"?>
<!DOCTYPE svg PUBLIC "-//W3C//DTD SVG 1.1//EN"
 "http://www.w3.org/Graphics/SVG/1.1/DTD/svg11.dtd">
<!-- Generated by graphviz version 2.42.3 (0)
 -->
<!-- Title: dependency&#45;cruiser output Pages: 1 -->
<svg width="316pt" height="307pt"
 viewBox="0.00 0.00 316.00 307.39" xmlns="http://www.w3.org/2000/svg" xmlns:xlink="http://www.w3.org/1999/xlink">
<g id="graph0" class="graph" transform="scale(1 1) rotate(0) translate(4 303.39)">
<title>dependency&#45;cruiser output</title>
<polygon fill="white" stroke="transparent" points="-4,4 -4,-303.39 312,-303.39 312,4 -4,4"/>
<g id="clust1" class="cluster">
<title>cluster_src</title>
<path fill="#ffffff" stroke="black" stroke-width="2" d="M20,-64.8C20,-64.8 234,-64.8 234,-64.8 240,-64.8 246,-70.8 246,-76.8 246,-76.8 246,-194.8 246,-194.8 246,-200.8 240,-206.8 234,-206.8 234,-206.8 20,-206.8 20,-206.8 14,-206.8 8,-200.8 8,-194.8 8,-194.8 8,-76.8 8,-76.8 8,-70.8 14,-64.8 20,-64.8"/>
<text text-anchor="middle" x="127" y="-195.6" font-family="Helvetica,sans-Serif" font-weight="bold" font-size="9.00">src</text>
</g>
<g id="clust2" class="cluster">
<title>cluster_src/error</title>
<path fill="#ffffff" stroke="black" stroke-width="2" d="M90,-72.8C90,-72.8 226,-72.8 226,-72.8 232,-72.8 238,-78.8 238,-84.8 238,-84.8 238,-142.8 238,-142.8 238,-148.8 232,-154.8 226,-154.8 226,-154.8 90,-154.8 90,-154.8 84,-154.8 78,-148.8 78,-142.8 78,-142.8 78,-84.8 78,-84.8 78,-78.8 84,-72.8 90,-72.8"/>
<text text-anchor="middle" x="158" y="-143.6" font-family="Helvetica,sans-Serif" font-weight="bold" font-size="9.00">error</text>
</g>
<!-- http -->
<g id="node1" class="node">
<title>http</title>
<path fill="#ffffcc" stroke="grey" d="M179,-262.8C179,-262.8 137,-262.8 137,-262.8 134,-262.8 131,-259.8 131,-256.8 131,-256.8 131,-250.8 131,-250.8 131,-247.8 134,-244.8 137,-244.8 137,-244.8 179,-244.8 179,-244.8 182,-244.8 185,-247.8 185,-250.8 185,-250.8 185,-256.8 185,-256.8 185,-259.8 182,-262.8 179,-262.8"/>
<text text-anchor="middle" x="158" y="-251.6" font-family="Helvetica,sans-Serif" font-size="9.00" fill="grey">http</text>
</g>
<!-- https -->
<g id="node2" class="node">
<title>https</title>
<path fill="#ffffcc" stroke="grey" d="M179,-232.8C179,-232.8 137,-232.8 137,-232.8 134,-232.8 131,-229.8 131,-226.8 131,-226.8 131,-220.8 131,-220.8 131,-217.8 134,-214.8 137,-214.8 137,-214.8 179,-214.8 179,-214.8 182,-214.8 185,-217.8 185,-220.8 185,-220.8 185,-226.8 185,-226.8 185,-229.8 182,-232.8 179,-232.8"/>
<text text-anchor="middle" x="158" y="-221.6" font-family="Helvetica,sans-Serif" font-size="9.00" fill="grey">https</text>
</g>
<!-- src/error/BadRequestError.ts -->
<g id="node3" class="node">
<title>src/error/BadRequestError.ts</title>
<g id="a_node3"><a xlink:href="https://github.com/dragonman225/notionapi-agent/tree/master/src/error/BadRequestError.ts" xlink:title="BadRequestError.ts">
<path fill="#ddfeff" stroke="black" d="M203.5,-128.8C203.5,-128.8 112.5,-128.8 112.5,-128.8 109.5,-128.8 106.5,-125.8 106.5,-122.8 106.5,-122.8 106.5,-116.8 106.5,-116.8 106.5,-113.8 109.5,-110.8 112.5,-110.8 112.5,-110.8 203.5,-110.8 203.5,-110.8 206.5,-110.8 209.5,-113.8 209.5,-116.8 209.5,-116.8 209.5,-122.8 209.5,-122.8 209.5,-125.8 206.5,-128.8 203.5,-128.8"/>
<text text-anchor="middle" x="158" y="-117.6" font-family="Helvetica,sans-Serif" font-size="9.00">BadRequestError.ts</text>
</a>
</g>
</g>
<!-- src/error/UnsupportedProtocolError.ts -->
<g id="node4" class="node">
<title>src/error/UnsupportedProtocolError.ts</title>
<g id="a_node4"><a xlink:href="https://github.com/dragonman225/notionapi-agent/tree/master/src/error/UnsupportedProtocolError.ts" xlink:title="UnsupportedProtocolError.ts">
<path fill="#ddfeff" stroke="black" d="M224,-98.8C224,-98.8 92,-98.8 92,-98.8 89,-98.8 86,-95.8 86,-92.8 86,-92.8 86,-86.8 86,-86.8 86,-83.8 89,-80.8 92,-80.8 92,-80.8 224,-80.8 224,-80.8 227,-80.8 230,-83.8 230,-86.8 230,-86.8 230,-92.8 230,-92.8 230,-95.8 227,-98.8 224,-98.8"/>
<text text-anchor="middle" x="158" y="-87.6" font-family="Helvetica,sans-Serif" font-size="9.00">UnsupportedProtocolError.ts</text>
</a>
</g>
</g>
<!-- src/index.ts -->
<g id="node5" class="node">
<title>src/index.ts</title>
<g id="a_node5"><a xlink:href="https://github.com/dragonman225/notionapi-agent/tree/master/src/index.ts" xlink:title="index.ts">
<path fill="#ddfeff" stroke="black" d="M64,-154.8C64,-154.8 22,-154.8 22,-154.8 19,-154.8 16,-151.8 16,-148.8 16,-148.8 16,-142.8 16,-142.8 16,-139.8 19,-136.8 22,-136.8 22,-136.8 64,-136.8 64,-136.8 67,-136.8 70,-139.8 70,-142.8 70,-142.8 70,-148.8 70,-148.8 70,-151.8 67,-154.8 64,-154.8"/>
<text text-anchor="middle" x="43" y="-143.6" font-family="Helvetica,sans-Serif" font-size="9.00">index.ts</text>
</a>
</g>
</g>
<!-- src/index.ts&#45;&gt;http -->
<g id="edge4" class="edge">
<title>src/index.ts&#45;&gt;http</title>
<path fill="none" stroke="#000000" stroke-dasharray="5,2" stroke-opacity="0.200000" d="M44.47,-154.85C45.97,-173.63 52.18,-216.88 78,-238.8 90.78,-249.65 108.95,-253.62 124.64,-254.78"/>
<polygon fill="#000000" fill-opacity="0.200000" stroke="#000000" stroke-opacity="0.200000" points="124.64,-256.89 130.74,-255.11 124.86,-252.69 124.64,-256.89"/>
</g>
<!-- src/index.ts&#45;&gt;https -->
<g id="edge5" class="edge">
<title>src/index.ts&#45;&gt;https</title>
<path fill="none" stroke="#000000" stroke-dasharray="5,2" stroke-opacity="0.200000" d="M46.11,-154.91C49.91,-169.08 59.28,-196.18 78,-209.8 91.42,-219.57 109.47,-223.28 124.93,-224.45"/>
<polygon fill="#000000" fill-opacity="0.200000" stroke="#000000" stroke-opacity="0.200000" points="124.82,-226.55 130.93,-224.79 125.06,-222.35 124.82,-226.55"/>
</g>
<!-- src/index.ts&#45;&gt;src/error/BadRequestError.ts -->
<g id="edge1" class="edge">
<title>src/index.ts&#45;&gt;src/error/BadRequestError.ts</title>
<path fill="none" stroke="#000000" stroke-width="2" stroke-opacity="0.200000" d="M65.73,-136.75C69.76,-135.28 73.97,-133.89 78,-132.8 85.02,-130.9 92.48,-129.24 99.89,-127.79"/>
<polygon fill="#000000" fill-opacity="0.200000" stroke="#000000" stroke-width="2" stroke-opacity="0.200000" points="100.59,-129.79 106.1,-126.62 99.82,-125.67 100.59,-129.79"/>
</g>
<!-- src/index.ts&#45;&gt;src/error/UnsupportedProtocolError.ts -->
<g id="edge2" class="edge">
<title>src/index.ts&#45;&gt;src/error/UnsupportedProtocolError.ts</title>
<path fill="none" stroke="#000000" stroke-width="2" stroke-opacity="0.200000" d="M48.96,-136.71C54.66,-127.17 64.94,-112.51 78,-104.8 80.04,-103.6 82.16,-102.49 84.34,-101.46"/>
<polygon fill="#000000" fill-opacity="0.200000" stroke="#000000" stroke-width="2" stroke-opacity="0.200000" points="85.54,-103.23 90.23,-98.95 83.89,-99.37 85.54,-103.23"/>
</g>
<!-- src/util.ts -->
<g id="node6" class="node">
<title>src/util.ts</title>
<g id="a_node6"><a xlink:href="https://github.com/dragonman225/notionapi-agent/tree/master/src/util.ts" xlink:title="util.ts">
<path fill="#ddfeff" stroke="black" d="M179,-180.8C179,-180.8 137,-180.8 137,-180.8 134,-180.8 131,-177.8 131,-174.8 131,-174.8 131,-168.8 131,-168.8 131,-165.8 134,-162.8 137,-162.8 137,-162.8 179,-162.8 179,-162.8 182,-162.8 185,-165.8 185,-168.8 185,-168.8 185,-174.8 185,-174.8 185,-177.8 182,-180.8 179,-180.8"/>
<text text-anchor="middle" x="158" y="-169.6" font-family="Helvetica,sans-Serif" font-size="9.00">util.ts</text>
</a>
</g>
</g>
<!-- src/index.ts&#45;&gt;src/util.ts -->
<g id="edge3" class="edge">
<title>src/index.ts&#45;&gt;src/util.ts</title>
<path fill="none" stroke="#000000" stroke-width="2" stroke-opacity="0.200000" d="M67.99,-154.82C71.33,-155.91 74.73,-156.94 78,-157.8 93.2,-161.81 110.36,-165 124.79,-167.32"/>
<polygon fill="#000000" fill-opacity="0.200000" stroke="#000000" stroke-width="2" stroke-opacity="0.200000" points="124.54,-169.41 130.79,-168.26 125.19,-165.26 124.54,-169.41"/>
</g>
<!-- stream -->
<g id="node7" class="node">
<title>stream</title>
<path fill="#ffffcc" stroke="grey" d="M302,-225.8C302,-225.8 260,-225.8 260,-225.8 257,-225.8 254,-222.8 254,-219.8 254,-219.8 254,-213.8 254,-213.8 254,-210.8 257,-207.8 260,-207.8 260,-207.8 302,-207.8 302,-207.8 305,-207.8 308,-210.8 308,-213.8 308,-213.8 308,-219.8 308,-219.8 308,-222.8 305,-225.8 302,-225.8"/>
<text text-anchor="middle" x="281" y="-214.6" font-family="Helvetica,sans-Serif" font-size="9.00" fill="grey">stream</text>
</g>
<!-- src/index.ts&#45;&gt;stream -->
<g id="edge6" class="edge">
<title>src/index.ts&#45;&gt;stream</title>
<path fill="none" stroke="#000000" stroke-dasharray="5,2" stroke-opacity="0.200000" d="M45.11,-154.93C48.47,-180.97 59.49,-254.72 78,-268.8 137.42,-314.02 180.33,-304.33 246,-268.8 260.35,-261.04 269.61,-244.3 274.79,-231.9"/>
<polygon fill="#000000" fill-opacity="0.200000" stroke="#000000" stroke-opacity="0.200000" points="276.78,-232.57 277.01,-226.22 272.87,-231.04 276.78,-232.57"/>
</g>
<!-- url -->
<g id="node8" class="node">
<title>url</title>
<path fill="#ffffcc" stroke="grey" d="M179,-56.8C179,-56.8 137,-56.8 137,-56.8 134,-56.8 131,-53.8 131,-50.8 131,-50.8 131,-44.8 131,-44.8 131,-41.8 134,-38.8 137,-38.8 137,-38.8 179,-38.8 179,-38.8 182,-38.8 185,-41.8 185,-44.8 185,-44.8 185,-50.8 185,-50.8 185,-53.8 182,-56.8 179,-56.8"/>
<text text-anchor="middle" x="158" y="-45.6" font-family="Helvetica,sans-Serif" font-size="9.00" fill="grey">url</text>
</g>
<!-- src/index.ts&#45;&gt;url -->
<g id="edge7" class="edge">
<title>src/index.ts&#45;&gt;url</title>
<path fill="none" stroke="#000000" stroke-dasharray="5,2" stroke-opacity="0.200000" d="M45.51,-136.57C48.63,-120.56 57.3,-87.63 78,-69.8 90.95,-58.65 109.13,-53.12 124.79,-50.39"/>
<polygon fill="#000000" fill-opacity="0.200000" stroke="#000000" stroke-opacity="0.200000" points="125.26,-52.44 130.87,-49.45 124.62,-48.29 125.26,-52.44"/>
</g>
<!-- zlib -->
<g id="node9" class="node">
<title>zlib</title>
<path fill="#ffffcc" stroke="grey" d="M302,-134.8C302,-134.8 260,-134.8 260,-134.8 257,-134.8 254,-131.8 254,-128.8 254,-128.8 254,-122.8 254,-122.8 254,-119.8 257,-116.8 260,-116.8 260,-116.8 302,-116.8 302,-116.8 305,-116.8 308,-119.8 308,-122.8 308,-122.8 308,-128.8 308,-128.8 308,-131.8 305,-134.8 302,-134.8"/>
<text text-anchor="middle" x="281" y="-123.6" font-family="Helvetica,sans-Serif" font-size="9.00" fill="grey">zlib</text>
</g>
<!-- src/index.ts&#45;&gt;zlib -->
<g id="edge8" class="edge">
<title>src/index.ts&#45;&gt;zlib</title>
<path fill="none" stroke="#000000" stroke-dasharray="5,2" stroke-opacity="0.200000" d="M43.49,-136.8C42.78,-114.69 44.46,-57.74 78,-32.8 137.92,11.74 184.81,9.98 246,-32.8 271.28,-50.48 277.83,-89.07 279.48,-110.57"/>
<polygon fill="#000000" fill-opacity="0.200000" stroke="#000000" stroke-opacity="0.200000" points="277.39,-110.79 279.85,-116.65 281.58,-110.53 277.39,-110.79"/>
</g>
<!-- src/util.ts&#45;&gt;stream -->
<g id="edge9" class="edge">
<title>src/util.ts&#45;&gt;stream</title>
<path fill="none" stroke="#000000" stroke-dasharray="5,2" stroke-opacity="0.200000" d="M183.49,-180.91C202.59,-188.02 229.23,-197.92 249.69,-205.53"/>
<polygon fill="#000000" fill-opacity="0.200000" stroke="#000000" stroke-opacity="0.200000" points="249.19,-207.59 255.55,-207.71 250.66,-203.65 249.19,-207.59"/>
</g>
<!-- src/util.ts&#45;&gt;zlib -->
<g id="edge10" class="edge">
<title>src/util.ts&#45;&gt;zlib</title>
<path fill="none" stroke="#000000" stroke-dasharray="5,2" stroke-opacity="0.200000" d="M185.34,-171.56C203.26,-170.47 227.06,-167.13 246,-157.8 254.69,-153.53 262.68,-146.27 268.73,-139.74"/>
<polygon fill="#000000" fill-opacity="0.200000" stroke="#000000" stroke-opacity="0.200000" points="270.55,-140.85 272.95,-134.96 267.41,-138.07 270.55,-140.85"/>
</g>
</g>
</svg>
